<?xml version="1.0" encoding="UTF-8" standalone="no"?>
<!-- Created with Inkscape (http://www.inkscape.org/) -->
<svg xmlns:dc="http://purl.org/dc/elements/1.1/" xmlns:cc="http://creativecommons.org/ns#" xmlns:rdf="http://www.w3.org/1999/02/22-rdf-syntax-ns#" xmlns:svg="http://www.w3.org/2000/svg" xmlns="http://www.w3.org/2000/svg" xmlns:xlink="http://www.w3.org/1999/xlink" xmlns:sodipodi="http://sodipodi.sourceforge.net/DTD/sodipodi-0.dtd" xmlns:inkscape="http://www.inkscape.org/namespaces/inkscape" width="200" height="200" id="svg2618" sodipodi:version="0.32" inkscape:version="0.48.1 r9760" sodipodi:docname="movie_clapperboard.svg" inkscape:output_extension="org.inkscape.output.svg.inkscape" version="1.1" inkscape:export-filename="/home/gnokii/Desktop/icons/movie.png" inkscape:export-xdpi="90" inkscape:export-ydpi="90">
  <defs id="defs2620">
    <linearGradient id="SVGID_30_" gradientUnits="userSpaceOnUse" x1="888.38568" y1="490.42969" x2="849.78131" y2="446.56091" gradientTransform="matrix(0.9077,0.4197,-0.4197,0.9077,200.4444,-57.0905)">
      <stop offset="0" style="stop-color:#292929" id="stop7557"/>
      <stop offset="0.098" style="stop-color:#212121" id="stop7559"/>
      <stop offset="0.466" style="stop-color:#090909" id="stop7561"/>
      <stop offset="0.6923" style="stop-color:#000000" id="stop7563"/>
    </linearGradient>
    <linearGradient id="linearGradient7921" inkscape:collect="always">
      <stop id="stop7923" offset="0" style="stop-color:#cccccc;stop-opacity:1"/>
      <stop id="stop7925" offset="1" style="stop-color:#ffffff;stop-opacity:1"/>
    </linearGradient>
    <linearGradient id="linearGradient7915" inkscape:collect="always">
      <stop id="stop7917" offset="0" style="stop-color:#cccccc;stop-opacity:1"/>
      <stop id="stop7919" offset="1" style="stop-color:#ffffff;stop-opacity:1"/>
    </linearGradient>
    <linearGradient id="linearGradient7909" inkscape:collect="always">
      <stop id="stop7911" offset="0" style="stop-color:#cccccc;stop-opacity:1"/>
      <stop id="stop7913" offset="1" style="stop-color:#ffffff;stop-opacity:1"/>
    </linearGradient>
    <linearGradient inkscape:collect="always" id="linearGradient7895">
      <stop style="stop-color:#cccccc;stop-opacity:1" offset="0" id="stop7897"/>
      <stop style="stop-color:#ffffff;stop-opacity:1" offset="1" id="stop7899"/>
    </linearGradient>
    <linearGradient id="linearGradient7889" inkscape:collect="always">
      <stop id="stop7891" offset="0" style="stop-color:#b3b3b3;stop-opacity:1"/>
      <stop id="stop7893" offset="1" style="stop-color:#ffffff;stop-opacity:1"/>
    </linearGradient>
    <linearGradient id="linearGradient7883" inkscape:collect="always">
      <stop id="stop7885" offset="0" style="stop-color:#b3b3b3;stop-opacity:1"/>
      <stop id="stop7887" offset="1" style="stop-color:#ffffff;stop-opacity:1"/>
    </linearGradient>
    <linearGradient id="linearGradient7877" inkscape:collect="always">
      <stop id="stop7879" offset="0" style="stop-color:#b3b3b3;stop-opacity:1"/>
      <stop id="stop7881" offset="1" style="stop-color:#ffffff;stop-opacity:1"/>
    </linearGradient>
    <linearGradient inkscape:collect="always" id="linearGradient7863">
      <stop style="stop-color:#ececec;stop-opacity:1;" offset="0" id="stop7865"/>
      <stop style="stop-color:#ffffff;stop-opacity:1" offset="1" id="stop7867"/>
    </linearGradient>
    <linearGradient id="SVGID_29_" gradientUnits="userSpaceOnUse" x1="954.2959" y1="620.96973" x2="890.98108" y2="435.63019" gradientTransform="matrix(0.9077,0.4197,-0.4197,0.9077,171.0349,93.793045)">
      <stop offset="0" style="stop-color:#1F1F1F" id="stop7488"/>
      <stop offset="0.5959" style="stop-color:#090909" id="stop7490"/>
      <stop offset="1" style="stop-color:#000000" id="stop7492"/>
    </linearGradient>
    <inkscape:perspective sodipodi:type="inkscape:persp3d" inkscape:vp_x="0 : 526.18109 : 1" inkscape:vp_y="0 : 1000 : 0" inkscape:vp_z="744.09448 : 526.18109 : 1" inkscape:persp3d-origin="372.04724 : 350.78739 : 1" id="perspective2626"/>
    <inkscape:perspective id="perspective5110" inkscape:persp3d-origin="0.5 : 0.33333333 : 1" inkscape:vp_z="1 : 0.5 : 1" inkscape:vp_y="0 : 1000 : 0" inkscape:vp_x="0 : 0.5 : 1" sodipodi:type="inkscape:persp3d"/>
    <filter inkscape:collect="always" id="filter5951" x="-0.040081237" width="1.0801625" y="-0.88178724" height="2.7635746" color-interpolation-filters="sRGB">
      <feGaussianBlur inkscape:collect="always" stdDeviation="9.6496791" id="feGaussianBlur5953"/>
    </filter>
    <linearGradient gradientTransform="matrix(0.9077,0.4197,-0.4197,0.9077,200.4444,-57.0905)" y2="435.63019" x2="890.98108" y1="620.96973" x1="954.2959" gradientUnits="userSpaceOnUse" id="linearGradient7796">
      <stop id="stop7798" style="stop-color:#1F1F1F" offset="0"/>
      <stop id="stop7800" style="stop-color:#090909" offset="0.5959"/>
      <stop id="stop7802" style="stop-color:#000000" offset="1"/>
    </linearGradient>
    <linearGradient inkscape:collect="always" xlink:href="#SVGID_29_" id="linearGradient4331" gradientUnits="userSpaceOnUse" gradientTransform="matrix(0.08690958,0.01634315,-0.01634315,0.08690958,713.27953,119.40641)" x1="929.45679" y1="621.65021" x2="890.98108" y2="435.63019"/>
    <linearGradient inkscape:collect="always" xlink:href="#linearGradient7863" id="linearGradient4333" gradientUnits="userSpaceOnUse" x1="834.02148" y1="774.69659" x2="844.17224" y2="761.73254"/>
    <linearGradient inkscape:collect="always" xlink:href="#linearGradient7877" id="linearGradient4335" gradientUnits="userSpaceOnUse" x1="829.04858" y1="782.87402" x2="836.93896" y2="767.78247"/>
    <linearGradient inkscape:collect="always" xlink:href="#linearGradient7883" id="linearGradient4337" gradientUnits="userSpaceOnUse" x1="868.13245" y1="792.89661" x2="880.91254" y2="782.60718"/>
    <linearGradient inkscape:collect="always" xlink:href="#linearGradient7889" id="linearGradient4339" gradientUnits="userSpaceOnUse" x1="906.10712" y1="809.50671" x2="918.76538" y2="797.75269"/>
    <linearGradient inkscape:collect="always" xlink:href="#linearGradient7895" id="linearGradient4341" gradientUnits="userSpaceOnUse" x1="875.87402" y1="700.19482" x2="879.87274" y2="750.49133"/>
    <linearGradient inkscape:collect="always" xlink:href="#linearGradient7909" id="linearGradient4343" gradientUnits="userSpaceOnUse" x1="875.87402" y1="700.19482" x2="879.87274" y2="750.49133"/>
    <linearGradient inkscape:collect="always" xlink:href="#linearGradient7915" id="linearGradient4345" gradientUnits="userSpaceOnUse" x1="875.87402" y1="700.19482" x2="879.87274" y2="750.49133"/>
    <linearGradient inkscape:collect="always" xlink:href="#linearGradient7921" id="linearGradient4347" gradientUnits="userSpaceOnUse" x1="875.87402" y1="700.19482" x2="879.87274" y2="750.49133"/>
    <linearGradient inkscape:collect="always" xlink:href="#SVGID_30_" id="linearGradient4349" gradientUnits="userSpaceOnUse" gradientTransform="matrix(0.9077,0.4197,-0.4197,0.9077,200.4444,-57.0905)" x1="888.38568" y1="490.42969" x2="849.78131" y2="446.56091"/>
  </defs>
  <sodipodi:namedview id="base" pagecolor="#ffffff" bordercolor="#666666" borderopacity="1.0" inkscape:pageopacity="0.0" inkscape:pageshadow="2" inkscape:zoom="1.4" inkscape:cx="64.313318" inkscape:cy="18.309106" inkscape:document-units="px" inkscape:current-layer="g4278" showgrid="false" inkscape:window-width="1276" inkscape:window-height="965" inkscape:window-x="0" inkscape:window-y="26" borderlayer="true" inkscape:showpageshadow="false" inkscape:window-maximized="0"/>
  <metadata id="metadata2623">
    <rdf:RDF>
      <cc:Work rdf:about="">
        <dc:format>image/svg+xml</dc:format>
        <dc:type rdf:resource="http://purl.org/dc/dcmitype/StillImage"/>
        <dc:title/>
      </cc:Work>
    </rdf:RDF>
  </metadata>
  <g inkscape:label="Ebene 1" inkscape:groupmode="layer" id="layer1" transform="translate(0,-852.3622)">
    <g id="g2694" transform="matrix(2.125743,-0.3982891,0.3982891,2.125743,-1716.2854,956.5805)">
      <g id="g5131" transform="matrix(0.37524787,0.09500821,-0.09500821,0.37524787,737.97789,-254.2563)" style="opacity:0.5;fill:#999999"/>
      <path sodipodi:type="arc" style="opacity:0.51842807;fill:#000000;fill-opacity:1;stroke:none;filter:url(#filter5951)" id="path5909" sodipodi:cx="-115.15739" sodipodi:cy="875.58551" sodipodi:rx="288.90363" sodipodi:ry="13.131983" d="m 173.74624,875.58551 a 288.90363,13.131983 0 1 1 -577.80725,0 288.90363,13.131983 0 1 1 577.80725,0 z" transform="matrix(0.13928023,0.02609618,-0.03296117,0.17591987,862.05231,39.351301)"/>
      <g transform="matrix(4.3167927,0.72559133,-0.72559133,4.3167927,-2432.0313,-1201.6065)" id="g4278">
        <path d="m 792.99679,178.01711 -12.44915,-2.3411 0.29039,-1.5442 -2.07486,-0.3902 -2.27767,12.1112 c -0.10022,0.5331 0.25078,1.0464 0.78368,1.1465 l 13.55877,2.5498 c 0.5331,0.1002 1.04631,-0.2506 1.14656,-0.7836 l 1.80574,-9.6021 c 0.10042,-0.533 -0.25029,-1.046 -0.78346,-1.1463 z" id="path7494" style="fill:url(#linearGradient4331)" inkscape:connector-curvature="0"/>
        <rect x="797.99854" y="31.235275" transform="matrix(0.98277454,0.18480855,-0.18480855,0.98277454,0,0)" width="15.014133" height="0.12026871" id="rect7498" style="fill:#ffffff"/>
        <rect x="798.00305" y="38.182663" transform="matrix(0.98277454,0.18480855,-0.18480855,0.98277454,0,0)" width="15.014222" height="0.12026871" id="rect7500" style="fill:#ffffff"/>
        <g id="g7516" transform="matrix(0.08574127,-0.02163982,0.02163982,0.08574127,697.3286,128.63901)">
          <g id="g7518">
            <g id="g7520">
              <polygon points="753.36,746.438 919.666,823.336 931.818,797.052 783.656,728.543 758.849,734.567 758.849,734.567 " id="polygon7522"/>
              <g id="g7524">
                <polygon points="754.256,745.822 759.104,735.336 783.376,729.441 930.924,797.666 919.553,822.254 919.553,822.254 " id="polygon7526"/>
                <polygon points="795.358,734.981 814.005,743.603 796.084,765.163 796.084,765.163 777.438,756.541 " id="polygon7528" style="fill:url(#linearGradient4333);fill-opacity:1"/>
                <polygon points="833.659,752.691 852.306,761.313 834.384,782.874 834.384,782.874 815.737,774.251 " id="polygon7530" style="fill:url(#linearGradient4335);fill-opacity:1"/>
                <polygon points="871.961,770.401 890.607,779.024 872.686,800.582 872.686,800.582 854.039,791.962 " id="polygon7532" style="fill:url(#linearGradient4337);fill-opacity:1"/>
                <polygon points="910.261,788.11 928.906,796.732 910.986,818.293 910.986,818.293 892.34,809.67 " id="polygon7534" style="fill:url(#linearGradient4339);fill-opacity:1"/>
              </g>
            </g>
            <g id="g7536" transform="matrix(0.9933737,0.1149289,-0.1149289,0.9933737,86.220215,-85.36556)">
              <polygon points="774.506,694.674 953.549,733.596 947.396,761.893 787.887,727.218 771.728,707.454 771.728,707.454 " id="polygon7538"/>
              <g id="g7540">
                <polygon points="774.851,695.705 772.396,706.997 788.206,726.333 947.053,760.863 952.807,734.392 952.807,734.392 " id="polygon7542"/>
                <polygon points="801.105,729.137 821.18,733.501 819.882,705.495 819.882,705.495 799.807,701.131 " id="polygon7544" style="fill:url(#linearGradient4341);fill-opacity:1"/>
                <polygon points="842.339,738.102 862.413,742.463 861.115,714.459 861.115,714.459 841.041,710.095 " id="polygon7546" style="fill:url(#linearGradient4343);fill-opacity:1"/>
                <polygon points="883.574,747.063 903.648,751.428 902.349,723.423 902.349,723.423 882.275,719.059 " id="polygon7548" style="fill:url(#linearGradient4345);fill-opacity:1"/>
                <polygon points="924.807,756.027 944.882,760.392 943.584,732.386 943.584,732.386 923.508,728.021 " id="polygon7550" style="fill:url(#linearGradient4347);fill-opacity:1"/>
              </g>
            </g>
          </g>
          <g id="g7552">
            <g id="g7554">
              <linearGradient id="linearGradient7835" gradientUnits="userSpaceOnUse" x1="888.38568" y1="490.42969" x2="849.78131" y2="446.56091" gradientTransform="matrix(0.9077,0.4197,-0.4197,0.9077,200.4444,-57.0905)">
                <stop offset="0" style="stop-color:#292929" id="stop7837"/>
                <stop offset="0.098" style="stop-color:#212121" id="stop7839"/>
                <stop offset="0.466" style="stop-color:#090909" id="stop7841"/>
                <stop offset="0.6923" style="stop-color:#000000" id="stop7843"/>
              </linearGradient>
              <path d="m 825.202,723.61 c 1.258,-2.721 -0.087,-6.044 -2.991,-7.388 l -37.077,-17.144 c -2.902,-1.342 -6.308,-0.215 -7.565,2.506 l -17.971,38.866 c -1.258,2.72 0.09,6.044 2.991,7.386 l 37.077,17.144 c 2.905,1.344 6.307,0.216 7.565,-2.505 l 17.971,-38.865 z" id="path7565" style="fill:url(#linearGradient4349)" inkscape:connector-curvature="0"/>
            </g>
            <g id="g7567" transform="translate(0.9041591,2.7124774)">
              <circle d="m 787.07802,708.164 c 0,1.34095 -1.08705,2.428 -2.428,2.428 -1.34094,0 -2.428,-1.08705 -2.428,-2.428 0,-1.34095 1.08706,-2.428 2.428,-2.428 1.34095,0 2.428,1.08705 2.428,2.428 z" cx="784.65002" cy="708.164" r="2.428" id="circle7569" sodipodi:cx="784.65002" sodipodi:cy="708.164" sodipodi:rx="2.428" sodipodi:ry="2.428" style="fill:#1a1a1a"/>
              <polygon points="784.241,707.176 785.301,707.316 785.708,708.303 785.059,709.148 783.998,709.009 783.998,709.009 783.592,708.021 " id="polygon7571"/>
              <path d="m 784.645,710.315 c -1.214,-0.086 -1.785,-1.12 -1.607,-0.949 0.513,0.489 1.412,0.809 1.934,0.731 0.679,-0.106 0.957,-1.792 1.341,-1.662 0.987,0.34 -0.351,1.97 -1.668,1.88 z" id="path7573" style="fill:#cccccc" inkscape:connector-curvature="0"/>
              <path d="m 785.278,706.054 c 0.144,0.019 0.43,0.64 0.081,0.804 -0.349,0.164 -1.704,-0.343 -1.935,-0.187 -0.231,0.156 0.25,-0.83 1.854,-0.617 z" id="path7575" style="fill:#ffffff" inkscape:connector-curvature="0"/>
            </g>
            <g id="g7577" transform="translate(4,2)">
              <circle d="m 771.18001,742.54401 c 0,1.34094 -1.08705,2.428 -2.428,2.428 -1.34094,0 -2.428,-1.08706 -2.428,-2.428 0,-1.34095 1.08706,-2.428 2.428,-2.428 1.34095,0 2.428,1.08705 2.428,2.428 z" cx="768.75201" cy="742.54401" r="2.428" id="circle7579" sodipodi:cx="768.75201" sodipodi:cy="742.54401" sodipodi:rx="2.428" sodipodi:ry="2.428" style="fill:#1a1a1a"/>
              <polygon points="768.631,741.482 769.611,741.907 769.733,742.969 768.876,743.603 767.896,743.181 767.896,743.181 767.774,742.12 " id="polygon7581"/>
              <path d="m 768.16,744.612 c -1.146,-0.413 -1.411,-1.564 -1.287,-1.353 0.359,0.612 1.137,1.164 1.66,1.232 0.682,0.084 1.411,-1.463 1.745,-1.232 0.856,0.598 -0.877,1.801 -2.118,1.353 z" id="path7583" style="fill:#cccccc" inkscape:connector-curvature="0"/>
              <path d="m 769.936,740.687 c 0.133,0.059 0.237,0.732 -0.145,0.795 -0.377,0.063 -1.544,-0.796 -1.81,-0.709 -0.262,0.088 0.468,-0.729 1.955,-0.086 z" id="path7585" style="fill:#ffffff" inkscape:connector-curvature="0"/>
            </g>
            <g id="g7587">
              <circle d="m 802.514,757.03198 c 0,1.34095 -1.08705,2.428 -2.428,2.428 -1.34095,0 -2.428,-1.08705 -2.428,-2.428 0,-1.34094 1.08705,-2.428 2.428,-2.428 1.34095,0 2.428,1.08706 2.428,2.428 z" cx="800.086" cy="757.03198" r="2.428" id="circle7589" sodipodi:cx="800.086" sodipodi:cy="757.03198" sodipodi:rx="2.428" sodipodi:ry="2.428" style="fill:#1a1a1a"/>
              <polygon points="799.965,755.972 800.945,756.396 801.066,757.458 800.21,758.092 799.229,757.669 799.229,757.669 799.108,756.607 " id="polygon7591"/>
              <path d="m 799.493,759.102 c -1.144,-0.414 -1.411,-1.565 -1.286,-1.354 0.359,0.612 1.138,1.164 1.659,1.231 0.683,0.086 1.413,-1.461 1.747,-1.23 0.856,0.597 -0.877,1.8 -2.12,1.353 z" id="path7593" style="fill:#cccccc" inkscape:connector-curvature="0"/>
              <path d="m 801.27,755.176 c 0.134,0.059 0.238,0.731 -0.145,0.795 -0.379,0.062 -1.545,-0.796 -1.81,-0.71 -0.264,0.088 0.468,-0.729 1.955,-0.085 z" id="path7595" style="fill:#ffffff" inkscape:connector-curvature="0"/>
            </g>
          </g>
        </g>
        <rect style="fill:#ffffff" id="rect3986" height="0.12026871" width="15.014133" transform="matrix(0.98277454,0.18480855,-0.18480855,0.98277454,0,0)" y="34.477707" x="798.00073"/>
        <g transform="matrix(0.98289627,0.18416003,-0.18416003,0.98289627,0,0)" style="font-size:0.69356662px;font-style:normal;font-variant:normal;font-weight:bold;font-stretch:normal;text-align:start;line-height:125%;letter-spacing:0px;word-spacing:0px;writing-mode:lr-tb;text-anchor:start;fill:#ffffff;fill-opacity:1;stroke:none;font-family:Arial;-inkscape-font-specification:Arial Bold" id="text4112">
          <path d="m 798.07011,31.229395 0,-0.496469 0.16086,0 c 0.061,0 0.1007,0.0025 0.11921,0.0075 0.0285,0.0075 0.0523,0.02371 0.0715,0.04877 0.0192,0.02483 0.0288,0.05701 0.0288,0.09652 0,0.03048 -0.006,0.0561 -0.0166,0.07687 -0.0111,0.02077 -0.0252,0.03714 -0.0423,0.0491 -0.0169,0.01174 -0.0342,0.01953 -0.0518,0.02337 -0.0239,0.0047 -0.0586,0.0071 -0.10396,0.0071 l -0.0654,0 0,0.187277 -0.10025,0 m 0.10025,-0.412483 0,0.140881 0.0549,0 c 0.0395,0 0.0659,-0.0026 0.0792,-0.0078 0.0133,-0.0052 0.0237,-0.01332 0.0312,-0.02438 0.008,-0.01106 0.0115,-0.02393 0.0115,-0.03861 0,-0.01806 -0.005,-0.03296 -0.0159,-0.0447 -0.0106,-0.01174 -0.024,-0.01908 -0.0403,-0.02201 -0.012,-0.0023 -0.036,-0.0034 -0.0721,-0.0034 l -0.0484,0" style="" id="path4425"/>
          <path d="m 798.53373,31.229395 0,-0.496469 0.21098,0 c 0.0531,0 0.0915,0.0045 0.11549,0.01355 0.0242,0.0088 0.0435,0.02461 0.0579,0.04741 0.0145,0.0228 0.0217,0.04888 0.0217,0.07823 0,0.03725 -0.011,0.06807 -0.0329,0.09245 -0.0219,0.02416 -0.0546,0.0394 -0.0982,0.04572 0.0217,0.01264 0.0395,0.02653 0.0535,0.04165 0.0142,0.01513 0.0333,0.04199 0.0572,0.0806 l 0.0606,0.09686 -0.11988,0 -0.0725,-0.108031 c -0.0257,-0.03861 -0.0433,-0.06288 -0.0528,-0.07281 -0.009,-0.01016 -0.0195,-0.01705 -0.0301,-0.02066 -0.0106,-0.0038 -0.0274,-0.0058 -0.0505,-0.0058 l -0.0203,0 0,0.207257 -0.10024,0 m 0.10024,-0.286503 0.0742,0 c 0.0481,1e-6 0.0781,-0.002 0.0901,-0.0061 0.012,-0.0041 0.0213,-0.01106 0.0281,-0.021 0.007,-0.0099 0.0102,-0.02235 0.0102,-0.03725 0,-0.01671 -0.005,-0.03014 -0.0136,-0.0403 -0.009,-0.01038 -0.0213,-0.01693 -0.0376,-0.01964 -0.008,-0.0011 -0.0325,-0.0017 -0.0731,-0.0017 l -0.0782,0 0,0.12598" style="" id="path4427"/>
          <path d="m 799.01428,30.984208 c 0,-0.05057 0.008,-0.09302 0.0227,-0.127334 0.0113,-0.02529 0.0267,-0.04798 0.0461,-0.06807 0.0196,-0.02009 0.0411,-0.03499 0.0643,-0.0447 0.0309,-0.01309 0.0666,-0.01964 0.10701,-0.01964 0.0732,1e-6 0.13163,0.02269 0.17543,0.06807 0.044,0.04538 0.066,0.108483 0.066,0.189309 0,0.08015 -0.0218,0.142912 -0.0654,0.188292 -0.0436,0.04515 -0.10182,0.06773 -0.17474,0.06773 -0.0738,0 -0.13253,-0.02246 -0.1761,-0.06739 -0.0436,-0.04515 -0.0654,-0.107241 -0.0654,-0.186261 m 0.10329,-0.0034 c 0,0.05622 0.013,0.09889 0.0389,0.128012 0.026,0.0289 0.0589,0.04335 0.0989,0.04335 0.04,1e-6 0.0727,-0.01434 0.0982,-0.04301 0.0257,-0.0289 0.0386,-0.07213 0.0386,-0.129705 0,-0.05689 -0.0125,-0.09934 -0.0376,-0.127334 -0.0248,-0.028 -0.0579,-0.04199 -0.0992,-0.04199 -0.0413,1e-6 -0.0746,0.01422 -0.0999,0.04267 -0.0253,0.02822 -0.0379,0.07089 -0.0379,0.128012" style="" id="path4429"/>
          <path d="m 799.57341,30.732926 0.18321,0 c 0.0413,0 0.0728,0.0032 0.0945,0.0095 0.0291,0.0086 0.0541,0.02382 0.0748,0.04572 0.0208,0.0219 0.0366,0.04877 0.0474,0.0806 0.0108,0.03161 0.0163,0.07067 0.0163,0.117175 0,0.04086 -0.005,0.07608 -0.0152,0.10566 -0.0124,0.03612 -0.0301,0.06536 -0.0532,0.08771 -0.0174,0.01693 -0.0409,0.03014 -0.0704,0.03962 -0.0221,0.007 -0.0517,0.0105 -0.0887,0.0105 l -0.18863,0 0,-0.496469 m 0.10024,0.08399 0,0.328835 0.0748,0 c 0.028,0 0.0482,-0.0016 0.0606,-0.0047 0.0163,-0.0041 0.0297,-0.01095 0.0403,-0.02066 0.0108,-0.0097 0.0196,-0.02563 0.0264,-0.04775 0.007,-0.02235 0.0102,-0.05272 0.0102,-0.0911 0,-0.03838 -0.003,-0.06784 -0.0102,-0.08839 -0.007,-0.02054 -0.0163,-0.03657 -0.0284,-0.04809 -0.0122,-0.01151 -0.0277,-0.0193 -0.0464,-0.02337 -0.014,-0.0032 -0.0414,-0.0047 -0.0823,-0.0047 l -0.045,0" style="" id="path4431"/>
          <path d="m 800.07428,30.732926 0.10024,0 0,0.268892 c 0,0.04267 0.001,0.07033 0.004,0.08297 0.004,0.02032 0.0145,0.03669 0.0305,0.04911 0.0163,0.01219 0.0384,0.01829 0.0664,0.01829 0.0285,1e-6 0.0499,-0.0058 0.0643,-0.01727 0.0145,-0.01174 0.0231,-0.02608 0.0261,-0.04301 0.003,-0.01693 0.004,-0.04504 0.004,-0.08432 l 0,-0.27465 0.10025,0 0,0.260765 c -1e-5,0.0596 -0.003,0.101709 -0.008,0.126318 -0.005,0.02461 -0.0155,0.04538 -0.0301,0.06231 -0.0145,0.01693 -0.0339,0.03048 -0.0583,0.04064 -0.0244,0.0099 -0.0562,0.0149 -0.0955,0.0149 -0.0474,0 -0.0834,-0.0054 -0.10803,-0.01625 -0.0244,-0.01106 -0.0437,-0.02529 -0.0579,-0.04267 -0.0142,-0.01761 -0.0236,-0.03601 -0.0281,-0.0552 -0.007,-0.02845 -0.01,-0.07044 -0.01,-0.12598 l 0,-0.264828" style="" id="path4433"/>
          <path d="m 800.89382,31.04686 0.0972,0.03082 c -0.0149,0.05419 -0.0397,0.09448 -0.0745,0.1209 -0.0345,0.02619 -0.0784,0.03928 -0.13173,0.03928 -0.0659,0 -0.12011,-0.02246 -0.16256,-0.06739 -0.0424,-0.04515 -0.0637,-0.106789 -0.0637,-0.184906 0,-0.08263 0.0213,-0.14675 0.064,-0.192356 0.0427,-0.04583 0.0988,-0.06875 0.16831,-0.06875 0.0607,1e-6 0.11006,0.01795 0.14799,0.05385 0.0226,0.02122 0.0395,0.0517 0.0508,0.09144 l -0.0992,0.02371 c -0.006,-0.02574 -0.0182,-0.04606 -0.0369,-0.06096 -0.0185,-0.0149 -0.0411,-0.02235 -0.0677,-0.02235 -0.0368,1e-6 -0.0667,0.01321 -0.0897,0.03962 -0.0228,0.02642 -0.0342,0.0692 -0.0342,0.12835 0,0.06276 0.0113,0.107467 0.0339,0.134108 0.0226,0.02664 0.0519,0.03996 0.0881,0.03996 0.0266,1e-6 0.0496,-0.0085 0.0688,-0.0254 0.0192,-0.01693 0.033,-0.04357 0.0413,-0.07992" style="" id="path4435"/>
          <path d="m 801.18913,31.229395 0,-0.412483 -0.14731,0 0,-0.08399 0.39453,0 0,0.08399 -0.14698,0 0,0.412483 -0.10024,0" style="" id="path4437"/>
          <path d="m 801.49697,31.229395 0,-0.496469 0.10024,0 0,0.496469 -0.10024,0" style="" id="path4439"/>
          <path d="m 801.67205,30.984208 c 0,-0.05057 0.008,-0.09302 0.0227,-0.127334 0.0113,-0.02529 0.0266,-0.04798 0.0461,-0.06807 0.0196,-0.02009 0.0411,-0.03499 0.0643,-0.0447 0.0309,-0.01309 0.0666,-0.01964 0.10701,-0.01964 0.0732,1e-6 0.13162,0.02269 0.17542,0.06807 0.044,0.04538 0.066,0.108483 0.066,0.189309 0,0.08015 -0.0218,0.142912 -0.0654,0.188292 -0.0436,0.04515 -0.10182,0.06773 -0.17474,0.06773 -0.0738,0 -0.13253,-0.02246 -0.17611,-0.06739 -0.0436,-0.04515 -0.0654,-0.107241 -0.0654,-0.186261 m 0.10329,-0.0034 c 0,0.05622 0.013,0.09889 0.0389,0.128012 0.026,0.0289 0.0589,0.04335 0.0989,0.04335 0.04,1e-6 0.0727,-0.01434 0.0982,-0.04301 0.0257,-0.0289 0.0386,-0.07213 0.0386,-0.129705 0,-0.05689 -0.0125,-0.09934 -0.0376,-0.127334 -0.0248,-0.028 -0.0579,-0.04199 -0.0992,-0.04199 -0.0413,1e-6 -0.0746,0.01422 -0.0999,0.04267 -0.0253,0.02822 -0.0379,0.07089 -0.0379,0.128012" style="" id="path4441"/>
          <path d="m 802.23253,31.229395 0,-0.496469 0.0975,0 0.20319,0.331544 0,-0.331544 0.0931,0 0,0.496469 -0.10059,0 -0.20014,-0.323755 0,0.323755 -0.0931,0" style="" id="path4443"/>
        </g>
        <g transform="matrix(0.98289627,0.18416003,-0.18416003,0.98289627,0,0)" style="font-size:0.69356662px;font-style:normal;font-variant:normal;font-weight:bold;font-stretch:normal;text-align:start;line-height:125%;letter-spacing:0px;word-spacing:0px;writing-mode:lr-tb;text-anchor:start;fill:#ffffff;fill-opacity:1;stroke:none;font-family:Arial;-inkscape-font-specification:Arial Bold" id="text4116">
          <path d="m 798.04471,34.304675 0.0975,-0.0095 c 0.006,0.03274 0.0177,0.05678 0.0356,0.07213 0.0181,0.01535 0.0423,0.02303 0.0728,0.02303 0.0323,0 0.0566,-0.0068 0.0728,-0.02032 0.0165,-0.01377 0.0247,-0.0298 0.0247,-0.04809 0,-0.01174 -0.004,-0.02167 -0.0105,-0.0298 -0.007,-0.0084 -0.0187,-0.01558 -0.0359,-0.02167 -0.0117,-0.0041 -0.0385,-0.01129 -0.0803,-0.02167 -0.0537,-0.01332 -0.0914,-0.02969 -0.11311,-0.0491 -0.0305,-0.02732 -0.0457,-0.06062 -0.0457,-0.0999 0,-0.02529 0.007,-0.04888 0.0213,-0.07078 0.0145,-0.02213 0.0351,-0.03895 0.062,-0.05046 0.0271,-0.01151 0.0597,-0.01727 0.0979,-0.01727 0.0623,0 0.10916,0.01366 0.14055,0.04098 0.0316,0.02732 0.0482,0.06378 0.0498,0.109386 l -0.10024,0.0044 c -0.004,-0.02551 -0.0136,-0.0438 -0.0278,-0.05486 -0.014,-0.01129 -0.0351,-0.01693 -0.0633,-0.01693 -0.0291,10e-7 -0.0519,0.006 -0.0684,0.01795 -0.0106,0.0077 -0.0159,0.01795 -0.0159,0.03082 0,0.01174 0.005,0.02179 0.0149,0.03014 0.0127,0.01061 0.0434,0.02167 0.0921,0.03319 0.0488,0.01152 0.0848,0.02348 0.10803,0.0359 0.0235,0.01219 0.0418,0.02901 0.0549,0.05046 0.0133,0.02122 0.02,0.04752 0.02,0.07891 0,0.02845 -0.008,0.05509 -0.0237,0.07992 -0.0158,0.02483 -0.0382,0.04335 -0.0671,0.05554 -0.0289,0.01196 -0.0649,0.01795 -0.10803,0.01795 -0.0628,0 -0.11097,-0.01445 -0.14461,-0.04335 -0.0336,-0.02912 -0.0537,-0.07146 -0.0603,-0.126995" style="" id="path4446"/>
          <path d="m 798.85105,34.283678 0.0972,0.03082 c -0.0149,0.05419 -0.0397,0.09448 -0.0745,0.1209 -0.0345,0.02619 -0.0784,0.03928 -0.13173,0.03928 -0.0659,0 -0.12011,-0.02246 -0.16256,-0.06739 -0.0424,-0.04515 -0.0637,-0.106789 -0.0637,-0.184906 0,-0.08263 0.0213,-0.14675 0.064,-0.192356 0.0427,-0.04583 0.0988,-0.06875 0.16831,-0.06875 0.0607,0 0.11006,0.01795 0.14799,0.05385 0.0226,0.02122 0.0395,0.0517 0.0508,0.09144 l -0.0992,0.02371 c -0.006,-0.02574 -0.0182,-0.04606 -0.0369,-0.06096 -0.0185,-0.0149 -0.0411,-0.02235 -0.0677,-0.02235 -0.0368,0 -0.0667,0.01321 -0.0897,0.03962 -0.0228,0.02642 -0.0342,0.0692 -0.0342,0.128351 0,0.06276 0.0113,0.107467 0.0339,0.134107 0.0226,0.02664 0.0519,0.03996 0.0881,0.03996 0.0266,0 0.0496,-0.0085 0.0688,-0.0254 0.0192,-0.01693 0.033,-0.04357 0.0413,-0.07992" style="" id="path4448"/>
          <path d="m 799.0346,34.466213 0,-0.496469 0.36812,0 0,0.08399 -0.26787,0 0,0.110063 0.24925,0 0,0.08365 -0.24925,0 0,0.135123 0.27736,0 0,0.08365 -0.37761,0" style="" id="path4450"/>
          <path d="m 799.4989,34.466213 0,-0.496469 0.0975,0 0.2032,0.331544 0,-0.331544 0.0931,0 0,0.496469 -0.10058,0 -0.20015,-0.323755 0,0.323755 -0.0931,0" style="" id="path4452"/>
          <path d="m 799.9991,34.466213 0,-0.496469 0.36811,0 0,0.08399 -0.26787,0 0,0.110063 0.24925,0 0,0.08365 -0.24925,0 0,0.135123 0.27736,0 0,0.08365 -0.3776,0" style="" id="path4454"/>
        </g>
        <g transform="matrix(0.98289627,0.18416003,-0.18416003,0.98289627,0,0)" style="font-size:0.69356662px;font-style:normal;font-variant:normal;font-weight:bold;font-stretch:normal;text-align:start;line-height:125%;letter-spacing:0px;word-spacing:0px;writing-mode:lr-tb;text-anchor:start;fill:#ffffff;fill-opacity:1;stroke:none;font-family:Arial;-inkscape-font-specification:Arial Bold" id="text4122">
          <path d="m 798.06977,37.668963 0.18322,0 c 0.0413,0 0.0728,0.0032 0.0945,0.0095 0.0291,0.0086 0.0541,0.02382 0.0748,0.04572 0.0208,0.0219 0.0366,0.04877 0.0474,0.0806 0.0108,0.03161 0.0163,0.07067 0.0163,0.117175 0,0.04086 -0.005,0.07608 -0.0152,0.10566 -0.0124,0.03612 -0.0301,0.06536 -0.0532,0.08771 -0.0174,0.01693 -0.0409,0.03014 -0.0704,0.03962 -0.0221,0.007 -0.0517,0.0105 -0.0887,0.0105 l -0.18864,0 0,-0.496469 m 0.10025,0.08399 0,0.328835 0.0748,0 c 0.028,0 0.0482,-0.0016 0.0606,-0.0047 0.0163,-0.0041 0.0297,-0.01095 0.0403,-0.02066 0.0108,-0.0097 0.0196,-0.02562 0.0264,-0.04775 0.007,-0.02235 0.0102,-0.05272 0.0102,-0.0911 0,-0.03838 -0.003,-0.06784 -0.0102,-0.08839 -0.007,-0.02054 -0.0163,-0.03657 -0.0284,-0.04809 -0.0122,-0.01151 -0.0277,-0.0193 -0.0464,-0.02337 -0.014,-0.0032 -0.0414,-0.0047 -0.0823,-0.0047 l -0.045,0" style="" id="path4457"/>
          <path d="m 799.01903,38.165432 -0.10905,0 -0.0434,-0.112772 -0.19845,0 -0.041,0.112772 -0.10634,0 0.19338,-0.496469 0.106,0 0.19879,0.496469 m -0.18457,-0.19642 -0.0684,-0.184229 -0.067,0.184229 0.13546,0" style="" id="path4459"/>
          <path d="m 799.13417,38.165432 0,-0.412483 -0.14732,0 0,-0.08399 0.39454,0 0,0.08399 -0.14698,0 0,0.412483 -0.10024,0" style="" id="path4461"/>
          <path d="m 799.44505,38.165432 0,-0.496469 0.36812,0 0,0.08399 -0.26787,0 0,0.110064 0.24925,0 0,0.08365 -0.24925,0 0,0.135124 0.27736,0 0,0.08365 -0.37761,0" style="" id="path4463"/>
        </g>
      </g>
    </g>
  </g>
</svg>